<svg id="svg" version="1.1" xmlns="http://www.w3.org/2000/svg" xmlns:xlink="http://www.w3.org/1999/xlink" width="400" height="400" viewBox="0, 0, 400,400"><g id="svgg"><path id="path0" d="M46.215 202.064 C 35.480 228.722,26.617 250.743,26.520 251.000 C 26.353 251.441,27.157 251.467,41.118 251.467 L 55.894 251.467 66.530 221.800 C 72.379 205.483,77.353 191.692,77.583 191.152 L 78.000 190.171 88.961 220.752 L 99.921 251.333 114.734 251.402 L 129.546 251.471 129.809 250.736 C 134.634 237.252,151.539 190.248,151.581 190.203 C 151.613 190.168,154.990 199.496,159.086 210.934 C 163.182 222.371,166.604 231.729,166.690 231.731 C 166.776 231.732,170.044 223.797,173.952 214.098 L 181.057 196.462 172.453 175.098 L 163.849 153.733 151.600 153.733 L 139.350 153.733 127.085 184.188 C 120.339 200.937,114.783 214.605,114.737 214.560 C 114.692 214.514,109.147 200.810,102.416 184.105 L 90.176 153.733 77.955 153.664 L 65.733 153.595 46.215 202.064 M216.403 155.400 C 216.007 156.390,207.218 178.200,196.873 203.867 C 186.528 229.533,178.005 250.744,177.934 251.002 C 177.810 251.446,178.589 251.468,192.567 251.402 L 207.331 251.333 218.265 220.867 C 224.279 204.111,229.260 190.401,229.333 190.402 C 229.407 190.403,234.387 204.141,240.400 220.931 L 251.333 251.458 266.067 251.462 C 274.170 251.465,280.800 251.388,280.800 251.291 C 280.800 251.195,271.963 229.175,261.162 202.358 L 241.524 153.600 229.324 153.600 L 217.123 153.600 216.403 155.400 M266.400 153.842 C 266.400 153.978,274.920 175.240,285.333 201.091 C 295.747 226.942,304.267 248.232,304.267 248.401 C 304.267 248.570,301.074 256.559,297.171 266.154 C 293.268 275.749,290.014 283.810,289.940 284.067 C 289.764 284.673,316.633 284.806,316.877 284.200 C 316.951 284.017,328.740 254.767,343.076 219.200 C 357.411 183.633,369.198 154.322,369.268 154.064 C 369.390 153.620,368.611 153.599,354.637 153.664 L 339.877 153.733 328.940 184.200 C 322.925 200.957,317.935 214.667,317.852 214.667 C 317.768 214.667,312.779 200.957,306.765 184.200 L 295.831 153.733 281.115 153.664 C 272.233 153.623,266.400 153.693,266.400 153.842 " stroke="none" fill="#fbfbfb" fill-rule="evenodd"></path><path id="path1" d="M190.962 8.022 C 81.329 13.213,-1.811 109.061,8.664 218.185 C 18.816 323.950,112.619 401.469,218.185 391.336 C 323.953 381.184,401.470 287.384,391.336 181.815 C 381.519 79.543,293.463 3.168,190.962 8.022 M102.416 184.105 C 109.147 200.810,114.692 214.514,114.737 214.560 C 114.783 214.605,120.339 200.937,127.085 184.188 L 139.350 153.733 151.600 153.733 L 163.849 153.733 172.453 175.098 L 181.057 196.462 173.952 214.098 C 170.044 223.797,166.776 231.732,166.690 231.731 C 166.604 231.729,163.182 222.371,159.086 210.934 C 154.990 199.496,151.613 190.168,151.581 190.203 C 151.539 190.248,134.634 237.252,129.809 250.736 L 129.546 251.471 114.734 251.402 L 99.921 251.333 88.961 220.752 L 78.000 190.171 77.583 191.152 C 77.353 191.692,72.379 205.483,66.530 221.800 L 55.894 251.467 41.118 251.467 C 27.157 251.467,26.353 251.441,26.520 251.000 C 26.617 250.743,35.480 228.722,46.215 202.064 L 65.733 153.595 77.955 153.664 L 90.176 153.733 102.416 184.105 M261.162 202.358 C 271.963 229.175,280.800 251.195,280.800 251.291 C 280.800 251.388,274.170 251.465,266.067 251.462 L 251.333 251.458 240.400 220.931 C 234.387 204.141,229.407 190.403,229.333 190.402 C 229.260 190.401,224.279 204.111,218.265 220.867 L 207.331 251.333 192.567 251.402 C 178.589 251.468,177.810 251.446,177.934 251.002 C 178.005 250.744,186.528 229.533,196.873 203.867 C 207.218 178.200,216.007 156.390,216.403 155.400 L 217.123 153.600 229.324 153.600 L 241.524 153.600 261.162 202.358 M306.765 184.200 C 312.779 200.957,317.768 214.667,317.852 214.667 C 317.935 214.667,322.925 200.957,328.940 184.200 L 339.877 153.733 354.637 153.664 C 368.611 153.599,369.390 153.620,369.268 154.064 C 369.198 154.322,357.411 183.633,343.076 219.200 C 328.740 254.767,316.951 284.017,316.877 284.200 C 316.633 284.806,289.764 284.673,289.940 284.067 C 290.014 283.810,293.268 275.749,297.171 266.154 C 301.074 256.559,304.267 248.570,304.267 248.401 C 304.267 248.232,295.747 226.942,285.333 201.091 C 274.920 175.240,266.400 153.978,266.400 153.842 C 266.400 153.693,272.233 153.623,281.115 153.664 L 295.831 153.733 306.765 184.200 " stroke="none" fill="#349444" fill-rule="evenodd"></path></g></svg>